{
  "source": "C:\\Users\\Peter\\Desktop\\stuff\\MIUN\\quantitative_research\\video_compression\\videos\\BVI-HD\\BVI-HD_CDVL_videos\\ORIG\\Fountain_1920x1080_50fps.mp4",
  "output": "C:\\Users\\Peter\\Desktop\\stuff\\MIUN\\quantitative_research\\video_compression\\compressed_videos\\BVI-HD\\vp9\\2\\Fountain_1920x1080_50fps_vp9.webm",
  "codec": "vp9",
  "ok": "Input #0, mov,mp4,m4a,3gp,3g2,mj2, from 'C:\\Users\\Peter\\Desktop\\stuff\\MIUN\\quantitative_research\\video_compression\\videos\\BVI-HD\\BVI-HD_CDVL_videos\\ORIG\\Fountain_1920x1080_50fps.mp4':\n  Metadata:\n    major_brand     : isom\n    minor_version   : 512\n    compatible_brands: isomiso2avc1mp41\n    encoder         : Lavf54.28.101\n  Duration: 00:00:05.00, start: 0.000000, bitrate: 603457 kb/s\n  Stream #0:0[0x1](und): Video: h264 (High 4:4:4 Predictive) (avc1 / 0x31637661), yuv420p(progressive), 1920x1080, 603453 kb/s, 50 fps, 50 tbr, 50 tbn (default)\n    Metadata:\n      handler_name    : VideoHandler\n      vendor_id       : [0][0][0][0]\n[out#0/webm @ 000002d62b519a00] Codec AVOption b:a (set bitrate (in bits/s)) has not been used for any stream. The most likely reason is either wrong type (e.g. a video option with no video streams) or that it is a private option of some decoder which was not actually used for any stream.\nStream mapping:\n  Stream #0:0 -> #0:0 (h264 (native) -> vp9 (libvpx-vp9))\nPress [q] to stop, [?] for help\n[libvpx-vp9 @ 000002d62c040a00] v1.15.2-100-g40561f514\nOutput #0, webm, to 'C:\\Users\\Peter\\Desktop\\stuff\\MIUN\\quantitative_research\\video_compression\\compressed_videos\\BVI-HD\\vp9\\2\\Fountain_1920x1080_50fps_vp9.webm':\n  Metadata:\n    major_brand     : isom\n    minor_version   : 512\n    compatible_brands: isomiso2avc1mp41\n    encoder         : Lavf62.3.100\n  Stream #0:0(und): Video: vp9, yuv420p(tv, progressive), 1920x1080, q=2-31, 2000 kb/s, 50 fps, 1k tbn (default)\n    Metadata:\n      encoder         : Lavc62.11.100 libvpx-vp9\n      handler_name    : VideoHandler\n      vendor_id       : [0][0][0][0]\n    Side data:\n      cpb: bitrate max/min/avg: 0/0/0 buffer size: 2000000 vbv_delay: N/A\nframe=    0 fps=0.0 q=0.0 size=       0KiB time=N/A bitrate=N/A speed=N/A elapsed=0:00:00.52    \nframe=    4 fps=3.4 q=61.0 size=       1KiB time=00:00:00.08 bitrate=  63.4kbits/s speed=0.0678x elapsed=0:00:01.18    \nframe=   10 fps=5.8 q=56.0 size=       1KiB time=00:00:00.20 bitrate=  25.4kbits/s speed=0.117x elapsed=0:00:01.71    \nframe=   14 fps=6.3 q=56.0 size=       1KiB time=00:00:00.28 bitrate=  18.1kbits/s speed=0.126x elapsed=0:00:02.23    \nframe=   19 fps=6.9 q=56.0 size=       1KiB time=00:00:00.38 bitrate=  13.3kbits/s speed=0.138x elapsed=0:00:02.75    \nframe=   23 fps=7.1 q=42.0 size=       1KiB time=00:00:00.46 bitrate=  11.0kbits/s speed=0.141x elapsed=0:00:03.25    \nframe=   28 fps=7.4 q=56.0 size=       1KiB time=00:00:00.56 bitrate=   9.1kbits/s speed=0.147x elapsed=0:00:03.80    \nframe=   33 fps=7.6 q=56.0 size=       1KiB time=00:00:00.66 bitrate=   7.7kbits/s speed=0.152x elapsed=0:00:04.34    \nframe=   37 fps=7.6 q=56.0 size=       1KiB time=00:00:00.74 bitrate=   6.9kbits/s speed=0.152x elapsed=0:00:04.87    \nframe=   40 fps=7.4 q=46.0 size=       1KiB time=00:00:00.80 bitrate=   6.3kbits/s speed=0.148x elapsed=0:00:05.40    \nframe=   45 fps=7.6 q=57.0 size=       1KiB time=00:00:00.90 bitrate=   5.6kbits/s speed=0.152x elapsed=0:00:05.92    \nframe=   48 fps=7.4 q=57.0 size=       1KiB time=00:00:00.96 bitrate=   5.3kbits/s speed=0.148x elapsed=0:00:06.46    \nframe=   52 fps=7.4 q=45.0 size=       1KiB time=00:00:01.04 bitrate=   4.9kbits/s speed=0.149x elapsed=0:00:06.99    \nframe=   57 fps=7.6 q=57.0 size=       1KiB time=00:00:01.14 bitrate=   4.4kbits/s speed=0.151x elapsed=0:00:07.52    \nframe=   60 fps=7.4 q=57.0 size=       1KiB time=00:00:01.20 bitrate=   4.2kbits/s speed=0.149x elapsed=0:00:08.06    \nframe=   64 fps=7.5 q=45.0 size=       1KiB time=00:00:01.28 bitrate=   4.0kbits/s speed=0.149x elapsed=0:00:08.57    \nframe=   69 fps=7.6 q=57.0 size=       1KiB time=00:00:01.38 bitrate=   3.7kbits/s speed=0.152x elapsed=0:00:09.09    \nframe=   72 fps=7.5 q=56.0 size=       1KiB time=00:00:01.44 bitrate=   3.5kbits/s speed=0.15x elapsed=0:00:09.61    \nframe=   76 fps=7.5 q=45.0 size=       1KiB time=00:00:01.52 bitrate=   3.3kbits/s speed=0.15x elapsed=0:00:10.12    \nframe=   81 fps=7.6 q=56.0 size=       1KiB time=00:00:01.62 bitrate=   3.1kbits/s speed=0.152x elapsed=0:00:10.66    \nframe=   85 fps=7.6 q=56.0 size=       1KiB time=00:00:01.70 bitrate=   3.0kbits/s speed=0.152x elapsed=0:00:11.20    \nframe=   89 fps=7.6 q=56.0 size=       1KiB time=00:00:01.78 bitrate=   2.8kbits/s speed=0.152x elapsed=0:00:11.74    \nframe=   93 fps=7.6 q=57.0 size=       1KiB time=00:00:01.86 bitrate=   2.7kbits/s speed=0.151x elapsed=0:00:12.29    \nframe=   97 fps=7.6 q=57.0 size=       1KiB time=00:00:01.94 bitrate=   2.6kbits/s speed=0.151x elapsed=0:00:12.81    \nframe=  100 fps=7.5 q=45.0 size=       1KiB time=00:00:02.00 bitrate=   2.5kbits/s speed=0.15x elapsed=0:00:13.36    \nframe=  104 fps=7.5 q=57.0 size=       1KiB time=00:00:02.08 bitrate=   2.4kbits/s speed=0.15x elapsed=0:00:13.87    \nframe=  108 fps=7.5 q=58.0 size=       1KiB time=00:00:02.16 bitrate=   2.3kbits/s speed=0.15x elapsed=0:00:14.39    \nframe=  111 fps=7.4 q=58.0 size=       1KiB time=00:00:02.22 bitrate=   2.3kbits/s speed=0.149x elapsed=0:00:14.92    \nframe=  116 fps=7.5 q=58.0 size=       1KiB time=00:00:02.32 bitrate=   2.2kbits/s speed=0.15x elapsed=0:00:15.45    \nframe=  119 fps=7.4 q=58.0 size=       1KiB time=00:00:02.38 bitrate=   2.1kbits/s speed=0.149x elapsed=0:00:15.99    \nframe=  123 fps=7.4 q=58.0 size=       1KiB time=00:00:02.46 bitrate=   2.1kbits/s speed=0.149x elapsed=0:00:16.53    \nframe=  127 fps=7.4 q=58.0 size=       1KiB time=00:00:02.54 bitrate=   2.0kbits/s speed=0.149x elapsed=0:00:17.07    \nframe=  131 fps=7.4 q=57.0 size=     512KiB time=00:00:02.62 bitrate=1600.9kbits/s speed=0.149x elapsed=0:00:17.60    \nframe=  135 fps=7.4 q=46.0 size=     512KiB time=00:00:02.70 bitrate=1553.4kbits/s speed=0.149x elapsed=0:00:18.13    \nframe=  140 fps=7.5 q=57.0 size=     512KiB time=00:00:02.80 bitrate=1498.0kbits/s speed=0.15x elapsed=0:00:18.66    \nframe=  143 fps=7.4 q=56.0 size=     512KiB time=00:00:02.86 bitrate=1466.5kbits/s speed=0.149x elapsed=0:00:19.20    \nframe=  147 fps=7.5 q=45.0 size=     512KiB time=00:00:02.94 bitrate=1426.6kbits/s speed=0.149x elapsed=0:00:19.71    \nframe=  151 fps=7.5 q=57.0 size=     512KiB time=00:00:03.02 bitrate=1388.8kbits/s speed=0.149x elapsed=0:00:20.23    \nframe=  155 fps=7.5 q=57.0 size=     512KiB time=00:00:03.10 bitrate=1353.0kbits/s speed=0.149x elapsed=0:00:20.76    \nframe=  158 fps=7.4 q=57.0 size=     512KiB time=00:00:03.16 bitrate=1327.3kbits/s speed=0.148x elapsed=0:00:21.29    \nframe=  163 fps=7.5 q=57.0 size=     512KiB time=00:00:03.26 bitrate=1286.6kbits/s speed=0.149x elapsed=0:00:21.81    \nframe=  167 fps=7.5 q=57.0 size=     512KiB time=00:00:03.34 bitrate=1255.8kbits/s speed=0.15x elapsed=0:00:22.32    \nframe=  170 fps=7.4 q=56.0 size=     512KiB time=00:00:03.40 bitrate=1233.6kbits/s speed=0.149x elapsed=0:00:22.86    \nframe=  175 fps=7.5 q=56.0 size=     512KiB time=00:00:03.50 bitrate=1198.4kbits/s speed=0.15x elapsed=0:00:23.39    \nframe=  179 fps=7.5 q=55.0 size=     512KiB time=00:00:03.58 bitrate=1171.6kbits/s speed=0.15x elapsed=0:00:23.93    \nframe=  182 fps=7.4 q=55.0 size=     512KiB time=00:00:03.64 bitrate=1152.3kbits/s speed=0.149x elapsed=0:00:24.47    \nframe=  186 fps=7.4 q=55.0 size=     512KiB time=00:00:03.72 bitrate=1127.5kbits/s speed=0.149x elapsed=0:00:24.97    \nframe=  190 fps=7.5 q=56.0 size=     512KiB time=00:00:03.80 bitrate=1103.8kbits/s speed=0.149x elapsed=0:00:25.49    \nframe=  194 fps=7.5 q=57.0 size=     512KiB time=00:00:03.88 bitrate=1081.0kbits/s speed=0.149x elapsed=0:00:26.02    \nframe=  198 fps=7.5 q=57.0 size=     512KiB time=00:00:03.94 bitrate=1064.5kbits/s speed=0.148x elapsed=0:00:26.55    \nframe=  201 fps=7.4 q=45.0 size=     512KiB time=00:00:04.02 bitrate=1043.4kbits/s speed=0.148x elapsed=0:00:27.09    \nframe=  206 fps=7.5 q=57.0 size=     512KiB time=00:00:04.12 bitrate=1018.0kbits/s speed=0.149x elapsed=0:00:27.62    \nframe=  210 fps=7.5 q=57.0 size=     512KiB time=00:00:04.20 bitrate= 998.6kbits/s speed=0.149x elapsed=0:00:28.15    \nframe=  213 fps=7.4 q=41.0 size=     512KiB time=00:00:04.26 bitrate= 984.6kbits/s speed=0.149x elapsed=0:00:28.68    \nframe=  217 fps=7.4 q=56.0 size=     512KiB time=00:00:04.34 bitrate= 966.4kbits/s speed=0.149x elapsed=0:00:29.22    \nframe=  222 fps=7.5 q=57.0 size=     512KiB time=00:00:04.44 bitrate= 944.7kbits/s speed=0.149x elapsed=0:00:29.74    \nframe=  225 fps=7.4 q=60.0 size=     512KiB time=00:00:04.50 bitrate= 932.1kbits/s speed=0.149x elapsed=0:00:30.28    \nframe=  226 fps=7.3 q=59.0 size=     512KiB time=00:00:04.52 bitrate= 927.9kbits/s speed=0.147x elapsed=0:00:30.81    \nframe=  226 fps=7.2 q=59.0 size=     512KiB time=00:00:04.52 bitrate= 927.9kbits/s speed=0.144x elapsed=0:00:31.32    \nframe=  226 fps=7.1 q=59.0 size=     512KiB time=00:00:04.52 bitrate= 927.9kbits/s speed=0.142x elapsed=0:00:31.84    \nframe=  226 fps=7.0 q=59.0 size=     512KiB time=00:00:04.52 bitrate= 927.9kbits/s speed=0.14x elapsed=0:00:32.36    \nframe=  226 fps=6.9 q=59.0 size=     512KiB time=00:00:04.52 bitrate= 927.9kbits/s speed=0.137x elapsed=0:00:32.90    \n[out#0/webm @ 000002d62b519a00] video:1284KiB audio:0KiB subtitle:0KiB other streams:0KiB global headers:0KiB muxing overhead: 0.186941%\nframe=  250 fps=7.5 q=59.0 Lsize=    1286KiB time=00:00:05.00 bitrate=2107.7kbits/s speed=0.151x elapsed=0:00:33.21    \n",
  "seconds": 33.527209520339966,
  "probe_out": {}
}